<?xml version="1.0" standalone="no"?>
<!DOCTYPE svg PUBLIC "-//W3C//DTD SVG 20010904//EN"
 "http://www.w3.org/TR/2001/REC-SVG-20010904/DTD/svg10.dtd">
<svg version="1.0" xmlns="http://www.w3.org/2000/svg"
 width="512.000000pt" height="512.000000pt" viewBox="0 0 512.000000 512.000000"
 preserveAspectRatio="xMidYMid meet">
<metadata>
Created by potrace 1.11, written by Peter Selinger 2001-2013
</metadata>
<g transform="translate(0.000000,512.000000) scale(0.100000,-0.100000)"
fill="#000000" stroke="none">
<path d="M2522 5106 c9 -11 -30 -141 -65 -216 -90 -192 -176 -274 -461 -441
-80 -47 -134 -88 -199 -151 -49 -49 -86 -88 -82 -88 5 0 -1 -10 -12 -22 -56
-61 -102 -214 -97 -324 5 -152 63 -272 198 -415 60 -63 178 -160 242 -199 21
-13 42 -29 46 -34 4 -6 10 -8 13 -4 4 3 -9 28 -28 55 -41 58 -127 233 -158
323 -18 51 -23 87 -24 170 0 100 2 109 33 173 44 89 120 170 261 275 172 130
232 195 299 328 33 65 57 143 68 214 6 45 7 197 0 235 -1 11 -6 41 -11 68 -4
26 -12 50 -19 54 -6 3 -8 3 -4 -1z"/>
<path d="M2860 4470 c-1 -3 -4 -18 -6 -33 -7 -41 -49 -133 -90 -194 -52 -78
-115 -130 -259 -209 -43 -24 -114 -82 -157 -128 -111 -122 -134 -282 -60 -420
45 -83 184 -220 271 -265 l23 -13 -27 44 c-42 68 -94 181 -109 242 -39 147 19
254 216 400 155 115 231 268 221 444 -3 56 -18 144 -23 132z"/>
<path d="M1296 3203 c-1 -2 -162 -3 -357 -3 -397 0 -418 -3 -505 -69 -33 -25
-58 -56 -79 -96 -29 -57 -30 -62 -31 -212 0 -85 3 -182 7 -216 4 -34 10 -91
13 -125 3 -35 8 -67 10 -70 2 -4 6 -29 10 -57 11 -94 89 -427 113 -485 3 -8 7
-19 8 -25 2 -5 26 -73 55 -150 82 -222 196 -443 307 -600 73 -102 85 -117 178
-210 132 -133 246 -203 375 -231 85 -18 1597 -21 1682 -3 148 32 322 152 456
315 l29 34 48 -21 c83 -37 175 -5 211 71 49 104 118 183 214 245 83 54 151 80
385 150 299 89 453 173 547 300 110 147 149 293 144 530 -3 116 -6 139 -33
211 -17 45 -46 106 -66 136 -57 90 -160 176 -249 208 -20 8 -34 18 -31 23 3 6
1 7 -5 3 -6 -3 -37 0 -70 8 -116 27 -366 2 -453 -45 -39 -20 -45 -12 -43 59 2
128 -58 231 -171 290 l-50 27 -970 3 c-533 1 -1129 3 -1323 5 -195 1 -355 1
-356 0z m1237 -663 c26 -7 47 -15 47 -19 0 -3 -20 -14 -45 -24 -135 -56 -288
-196 -367 -337 -22 -38 -59 -158 -74 -234 -20 -105 -49 -195 -91 -277 -19 -37
-53 -85 -76 -108 -40 -40 -138 -95 -182 -103 -26 -4 -87 87 -115 172 -119 374
192 843 620 934 76 16 214 14 283 -4z m2120 -10 c54 -26 92 -66 120 -130 30
-66 33 -223 7 -325 -32 -127 -92 -192 -231 -251 -72 -30 -69 -29 -239 -79
-165 -48 -230 -71 -319 -111 -41 -19 -75 -34 -78 -34 -2 0 4 17 13 38 31 72
106 296 120 357 1 6 16 66 32 135 17 69 36 161 42 205 l12 81 56 35 c164 103
348 135 465 79z m-1832 -213 c23 -38 46 -112 55 -176 50 -343 -209 -712 -581
-831 -94 -30 -333 -37 -323 -10 2 4 27 26 56 49 66 52 133 137 171 217 29 60
78 205 87 254 17 92 58 231 79 262 13 20 51 65 84 101 66 69 163 126 258 150
83 20 92 19 114 -16z"/>
<path d="M5 470 c20 -87 96 -193 196 -273 43 -35 192 -107 289 -140 177 -61
54 -57 1758 -57 l1560 0 88 25 c109 31 293 119 344 165 62 56 108 100 130 126
38 45 98 139 102 160 3 19 -53 19 -2235 19 l-2238 0 6 -25z"/>
</g>
</svg>
